:SAMPLES-PER-SECOND 30
:FULLY-SPECIFIED
:DEGREES
170
root  15.6326 39.022 -5.59823 -175.801 -73.8913 172.752
RightUpLeg  -18.3663 -4.14606 -11.2533
RightLeg  17.9893 4.85866 1.51079
RightFoot  -2.84676 -0.964522 12.688
RightToes  0.00048216 0.542163 -0.142577
Spine  28.8866 -2.13843 2.56741
Spine1  12.9379 -2.18412 1.69188
HEad  -13.2763 15.5275 -7.10042
LeftShoulder1  9.10033 -13.7065 -46.1195
LeftArm  -11.6111 -2.13886 -24.9706
LeftForeArm  29.4498 -19.6338 -3.46503
LeftHand  -0.25398 0.0180481 5.50724
RightShoulder  6.46179 10.6729 39.4698
RightArm  -2.59292 -0.158922 29.8664
RightForeArm  11.3769 31.9062 6.38325
RightHand  -2.84899 10.6755 -20.8313
LeftUpLeg  -15.2608 19.9742 3.38196
LeftLeg  26.3521 7.30051 4.26056
LeftFoot  -7.57998 0.173836 -3.91149
LeftToes  1.06241e-005 4.65855e-005 -8.18508e-006
171
root  15.4409 39.0849 -5.89984 -175.303 -75.3427 171.54
RightUpLeg  -17.3675 -3.98303 -11.2668
RightLeg  18.8763 4.09494 1.35039
RightFoot  -2.2053 -0.871459 10.7153
RightToes  0.00048216 0.542163 -0.142577
Spine  27.3297 -1.38065 1.22833
Spine1  12.6253 -1.52663 1.02725
HEad  -13.9323 14.7816 -5.95821
LeftShoulder1  9.06126 -13.6484 -46.0755
LeftArm  -11.9457 -0.678313 -23.6573
LeftForeArm  29.1468 -17.2394 -3.81333
LeftHand  -0.25398 0.0180481 5.50724
RightShoulder  6.54254 10.7501 39.7739
RightArm  -1.93557 -1.3438 30.5143
RightForeArm  10.5523 30.9589 6.19265
RightHand  -2.87169 10.7023 -20.9565
LeftUpLeg  -13.8982 18.8334 3.78703
LeftLeg  25.4897 7.0193 3.9753
LeftFoot  -6.93551 0.186593 -3.77344
LeftToes  1.06241e-005 4.65855e-005 -8.18508e-006
172
root  15.2208 39.1517 -6.18155 -175.082 -76.9104 170.726
RightUpLeg  -16.2914 -4.66254 -11.041
RightLeg  19.3849 3.78989 1.27114
RightFoot  -0.837438 -0.791445 8.53468
RightToes  0.00048216 0.542163 -0.142577
Spine  25.8374 -0.808127 0.0278541
Spine1  12.1237 -1.09064 0.673596
HEad  -14.3585 14.0323 -4.68468
LeftShoulder1  9.06237 -13.6252 -46.1457
LeftArm  -11.545 1.17398 -22.4073
LeftForeArm  29.2346 -16.0655 -4.05386
LeftHand  -0.25398 0.0180481 5.50724
RightShoulder  6.59626 10.8034 39.9677
RightArm  -1.02559 -2.22859 31.1128
RightForeArm  9.8203 30.4638 6.1117
RightHand  -2.9019 10.7767 -21.0748
LeftUpLeg  -12.7243 17.8255 4.26043
LeftLeg  24.7177 6.53311 3.61377
LeftFoot  -6.26811 0.191612 -3.47478
LeftToes  1.06241e-005 4.65855e-005 -8.18508e-006
173
root  14.9897 39.2287 -6.43352 -175.026 -78.5372 170.228
RightUpLeg  -15.1248 -5.80803 -10.768
RightLeg  19.5863 3.46214 1.15607
RightFoot  -0.000301372 -0.676773 6.79358
RightToes  0.00048216 0.542163 -0.142577
Spine  24.4402 -0.445914 -0.916992
Spine1  11.5223 -0.805036 0.363901
HEad  -14.6868 13.2159 -3.25586
LeftShoulder1  9.05545 -13.5845 -46.2223
LeftArm  -10.854 3.01402 -21.3654
LeftForeArm  29.3252 -15.5608 -4.21335
LeftHand  -0.25398 0.0180481 5.50724
RightShoulder  6.63482 10.8132 40.1929
RightArm  -0.148884 -2.70681 31.6198
RightForeArm  9.67981 30.2259 6.06114
RightHand  -2.89349 10.7567 -21.041
LeftUpLeg  -11.7045 16.828 4.75577
LeftLeg  23.9425 5.95591 3.22475
LeftFoot  -5.78542 0.200356 -3.41126
LeftToes  1.06241e-005 4.65855e-005 -8.18508e-006
174
root  14.7616 39.3052 -6.64696 -175.151 -80.0975 170.006
RightUpLeg  -13.8791 -6.85308 -10.5684
RightLeg  19.5993 2.94167 0.951122
RightFoot  -0.223973 -0.592007 6.06091
RightToes  0.00048216 0.542163 -0.142577
Spine  23.1603 -0.270213 -1.49444
Spine1  10.9016 -0.568531 -0.133595
HEad  -14.8813 12.3188 -1.83021
LeftShoulder1  9.02388 -13.5064 -46.274
LeftArm  -10.0402 4.74044 -20.6177
LeftForeArm  29.3673 -15.5449 -4.29209
LeftHand  -0.25398 0.0180481 5.50724
RightShoulder  6.65854 10.7797 40.4527
RightArm  0.664225 -2.85697 31.9901
RightForeArm  9.96207 30.2536 6.05205
RightHand  -2.83342 10.5907 -20.8265
LeftUpLeg  -10.8017 15.7607 5.23687
LeftLeg  23.2229 5.46631 2.9031
LeftFoot  -5.56318 0.217116 -3.6353
LeftToes  1.06241e-005 4.65855e-005 -8.18508e-006
175
root  14.5452 39.3693 -6.81928 -175.407 -81.4489 169.926
RightUpLeg  -12.6488 -7.52093 -10.4593
RightLeg  19.5431 2.38186 0.726983
RightFoot  -0.93438 -0.558708 6.05955
RightToes  0.00048216 0.542163 -0.142577
Spine  22.0433 -0.183465 -1.71508
Spine1  10.2746 -0.302887 -0.809233
HEad  -14.8603 11.4012 -0.604883
LeftShoulder1  8.99119 -13.4107 -46.3698
LeftArm  -9.10951 6.41167 -20.1461
LeftForeArm  29.4136 -16.0306 -4.2633
LeftHand  -0.25398 0.0180481 5.50724
RightShoulder  6.64987 10.7193 40.582
RightArm  1.34881 -2.90665 32.2561
RightForeArm  10.3806 30.7001 6.13859
RightHand  -2.7618 10.4138 -20.5393
LeftUpLeg  -9.97288 14.7265 5.65904
LeftLeg  22.6245 5.13546 2.68264
LeftFoot  -5.4829 0.231811 -3.8518
LeftToes  1.06241e-005 4.65855e-005 -8.18508e-006
176
root  14.3498 39.4172 -6.95692 -175.252 -82.4172 169.518
RightUpLeg  -11.7411 -7.84505 -10.4158
RightLeg  19.5824 1.90626 0.540644
RightFoot  -1.41937 -0.530005 5.98741
RightToes  0.00048216 0.542163 -0.142577
Spine  21.0773 -0.0350533 -1.73339
Spine1  9.57628 0.0859963 -1.57663
HEad  -14.7764 10.4778 0.465918
LeftShoulder1  8.9687 -13.3337 -46.4679
LeftArm  -8.36882 7.96821 -19.9546
LeftForeArm  29.5283 -16.7842 -4.13176
LeftHand  -0.25398 0.0180481 5.50724
RightShoulder  6.62098 10.6701 40.5431
RightArm  1.69637 -3.04748 32.447
RightForeArm  10.9124 31.6441 6.34453
RightHand  -2.71897 10.3381 -20.3272
LeftUpLeg  -9.28054 13.9701 5.93391
LeftLeg  22.1245 4.91245 2.52885
LeftFoot  -5.43796 0.236347 -3.93443
LeftToes  1.06241e-005 4.65855e-005 -8.18508e-006
177
root  14.1842 39.4451 -7.06724 -174.474 -82.9453 168.703
RightUpLeg  -11.3771 -7.97932 -10.386
RightLeg  19.8068 1.51516 0.392388
RightFoot  -1.64481 -0.486986 5.60346
RightToes  0.00048216 0.542163 -0.142577
Spine  20.22 0.227821 -1.67481
Spine1  8.76482 0.608216 -2.37714
HEad  -14.9136 9.54563 1.49337
LeftShoulder1  8.94823 -13.2892 -46.4848
LeftArm  -8.06911 9.32572 -20.0615
LeftForeArm  29.6426 -17.544 -3.95617
LeftHand  -0.25398 0.0180481 5.50724
RightShoulder  6.60888 10.6691 40.4655
RightArm  1.63358 -3.25638 32.5247
RightForeArm  11.7117 32.9711 6.63866
RightHand  -2.70204 10.3332 -20.2121
LeftUpLeg  -8.88917 13.5679 6.05624
LeftLeg  21.7925 4.75919 2.42682
LeftFoot  -5.46185 0.240724 -4.04829
LeftToes  1.06241e-005 4.65855e-005 -8.18508e-006
178
root  14.0542 39.4467 -7.15007 -173.943 -83.2491 168.244
RightUpLeg  -11.312 -8.19005 -10.3295
RightLeg  20.1435 1.31319 0.320071
RightFoot  -1.93259 -0.450294 5.30755
RightToes  0.00048216 0.542163 -0.142577
Spine  19.5497 0.476982 -1.54795
Spine1  7.94464 1.08252 -3.08098
HEad  -15.3323 8.67566 2.34615
LeftShoulder1  8.93717 -13.2573 -46.5168
LeftArm  -8.01577 10.5028 -20.357
LeftForeArm  29.6382 -18.3376 -3.78095
LeftHand  -0.25398 0.0180481 5.50724
RightShoulder  6.6105 10.7062 40.3612
RightArm  1.32316 -3.33733 32.51
RightForeArm  12.7755 34.4644 6.97158
RightHand  -2.67884 10.3075 -20.0772
LeftUpLeg  -8.81045 13.2601 6.15312
LeftLeg  21.8199 4.70967 2.40767
LeftFoot  -5.59816 0.247215 -4.25848
LeftToes  1.06241e-005 4.65855e-005 -8.18508e-006
179
root  13.9638 39.4251 -7.20319 -174.251 -83.6045 168.466
RightUpLeg  -11.1424 -8.64398 -10.2768
RightLeg  20.5227 1.37701 0.355999
RightFoot  -2.33274 -0.429989 5.25193
RightToes  0.00048216 0.542163 -0.142577
Spine  19.2008 0.571313 -1.33543
Spine1  7.30251 1.33511 -3.57683
HEad  -15.8649 7.94356 2.8334
LeftShoulder1  8.96588 -13.2389 -46.7224
LeftArm  -8.01676 11.4691 -20.6362
LeftForeArm  29.6412 -19.2047 -3.62077
LeftHand  -0.25398 0.0180481 5.50724
RightShoulder  6.58956 10.7307 40.1461
RightArm  0.917632 -3.16432 32.5043
RightForeArm  13.6993 35.9875 7.33488
RightHand  -2.64234 10.2144 -19.9279
LeftUpLeg  -8.81776 12.7823 6.30478
LeftLeg  22.2024 4.76878 2.4722
LeftFoot  -5.78592 0.248473 -4.40467
LeftToes  1.06241e-005 4.65855e-005 -8.18508e-006
180
root  13.9161 39.3902 -7.23201 -174.953 -84.0048 168.901
RightUpLeg  -10.8929 -9.06248 -10.252
RightLeg  21.0054 1.43877 0.394477
RightFoot  -2.66091 -0.408917 5.14401
RightToes  0.00048216 0.542163 -0.142577
Spine  19.1382 0.541095 -1.03658
Spine1  6.87367 1.43514 -3.95035
HEad  -16.3646 7.35691 3.00455
LeftShoulder1  9.0436 -13.2781 -47.0243
LeftArm  -8.15899 12.0919 -20.8408
LeftForeArm  29.8514 -19.9121 -3.50112
LeftHand  -0.25398 0.0180481 5.50724
RightShoulder  6.55352 10.7168 39.9492
RightArm  0.435884 -2.80626 32.4922
RightForeArm  14.0511 37.5285 7.75486
RightHand  -2.62633 10.0872 -19.9668
LeftUpLeg  -8.77891 12.2643 6.46537
LeftLeg  22.715 4.82489 2.54963
LeftFoot  -5.97426 0.242325 -4.40435
LeftToes  1.06241e-005 4.65855e-005 -8.18508e-006
181
root  13.9085 39.3451 -7.24776 -175.69 -84.2519 169.396
RightUpLeg  -10.8764 -9.02111 -10.1892
RightLeg  21.6439 1.18329 0.299852
RightFoot  -2.86064 -0.382978 4.89848
RightToes  0.00048216 0.542163 -0.142577
Spine  19.2146 0.504396 -0.69415
Spine1  6.48225 1.52972 -4.2945
HEad  -16.7218 6.95119 3.00058
LeftShoulder1  9.11459 -13.3639 -47.1557
LeftArm  -8.36637 12.3674 -21.1481
LeftForeArm  30.1935 -20.2366 -3.44086
LeftHand  -0.25398 0.0180481 5.50724
RightShoulder  6.54639 10.6877 39.991
RightArm  -0.115501 -2.41327 32.3633
RightForeArm  14.1013 39.0915 8.22023
RightHand  -2.64356 9.99733 -20.203
LeftUpLeg  -8.82169 12.0481 6.60903
LeftLeg  23.252 4.7504 2.56993
LeftFoot  -6.17447 0.232958 -4.34157
LeftToes  1.06241e-005 4.65855e-005 -8.18508e-006
182
root  13.9345 39.2875 -7.25911 -176.586 -84.3 170.159
RightUpLeg  -11.1439 -8.63061 -10.0608
RightLeg  22.3769 0.794748 0.14079
RightFoot  -3.03119 -0.366228 4.7534
RightToes  0.00048216 0.542163 -0.142577
Spine  19.3987 0.494638 -0.464147
Spine1  5.99466 1.58162 -4.44839
HEad  -16.8499 6.8098 2.84159
LeftShoulder1  9.11826 -13.4042 -47.06
LeftArm  -8.30711 12.4544 -21.6429
LeftForeArm  30.5295 -20.2983 -3.42499
LeftHand  -0.25398 0.0180481 5.50724
RightShoulder  6.56246 10.6688 40.1567
RightArm  -0.734934 -2.11585 32.1908
RightForeArm  14.6877 40.6956 8.68738
RightHand  -2.65054 9.96482 -20.2946
LeftUpLeg  -9.05486 12.1573 6.76079
LeftLeg  23.8932 4.58584 2.55644
LeftFoot  -6.34738 0.22372 -4.25498
LeftToes  1.06241e-005 4.65855e-005 -8.18508e-006
183
root  13.9912 39.2191 -7.26832 -177.35 -84.2485 170.81
RightUpLeg  -11.5305 -8.37769 -9.96023
RightLeg  23.1442 0.673384 0.0954149
RightFoot  -3.23312 -0.358312 4.74088
RightToes  0.00048216 0.542163 -0.142577
Spine  19.7145 0.494465 -0.476328
Spine1  5.52522 1.51536 -4.25983
HEad  -16.8874 6.89425 2.56017
LeftShoulder1  9.11006 -13.3904 -47.0562
LeftArm  -7.84838 12.3785 -22.0003
LeftForeArm  30.838 -20.3888 -3.42358
LeftHand  -0.25398 0.0180481 5.50724
RightShoulder  6.55667 10.658 40.1514
RightArm  -1.4875 -2.01309 32.1419
RightForeArm  16.0888 42.4469 9.17581
RightHand  -2.62182 9.95374 -20.0981
LeftUpLeg  -9.41545 12.2656 6.87286
LeftLeg  24.6599 4.52342 2.60284
LeftFoot  -6.4461 0.215653 -4.12699
LeftToes  1.06241e-005 4.65855e-005 -8.18508e-006
184
root  14.0814 39.142 -7.27412 -177.512 -84.0977 170.885
RightUpLeg  -12.0463 -8.31828 -9.92449
RightLeg  23.94 0.752631 0.143299
RightFoot  -3.42693 -0.346582 4.66879
RightToes  0.00048216 0.542163 -0.142577
Spine  20.079 0.524915 -0.607121
Spine1  5.24996 1.4361 -3.94508
HEad  -17.1116 7.06051 2.28089
LeftShoulder1  9.20143 -13.4419 -47.3897
LeftArm  -7.22209 12.0189 -21.8732
LeftForeArm  31.0197 -20.65 -3.41415
LeftHand  -0.25398 0.0180481 5.50724
RightShoulder  6.54272 10.6644 40.0385
RightArm  -2.31991 -2.05522 32.0988
RightForeArm  17.6123 44.3104 9.72619
RightHand  -2.60643 9.96704 -19.969
LeftUpLeg  -9.8659 12.2271 6.88079
LeftLeg  25.4685 4.643 2.74629
LeftFoot  -6.54251 0.208068 -4.02908
LeftToes  1.06241e-005 4.65855e-005 -8.18508e-006
